<?xml version="1.0" encoding="UTF-8"?>
<!DOCTYPE svg PUBLIC "-//W3C//DTD SVG 1.1//EN" "http://www.w3.org/Graphics/SVG/1.1/DTD/svg11.dtd">
<svg xmlns="http://www.w3.org/2000/svg" version="1.1" width="420px" height="120px" style="shape-rendering:geometricPrecision; text-rendering:geometricPrecision; image-rendering:optimizeQuality; fill-rule:evenodd; clip-rule:evenodd" xmlns:xlink="http://www.w3.org/1999/xlink">
<g><path style="opacity:1" fill="#239825" d="M 78.5,9.5 C 66.4509,8.05828 54.4509,8.39161 42.5,10.5C 54.3933,5.69738 66.3933,5.36405 78.5,9.5 Z"/></g>
<g><path style="opacity:1" fill="#02a913" d="M 78.5,9.5 C 93.7823,13.782 104.782,23.1154 111.5,37.5C 112.053,41.1124 113.053,44.6124 114.5,48C 113.631,53.2408 113.631,58.5741 114.5,64C 113.552,64.4828 112.552,64.6495 111.5,64.5C 111.371,56.7626 110.538,49.0959 109,41.5C 108.311,40.6433 107.478,39.9767 106.5,39.5C 105.491,42.4726 105.491,45.4726 106.5,48.5C 105.127,48.6567 103.793,48.49 102.5,48C 102.833,47.6667 103.167,47.3333 103.5,47C 100.23,43.2051 97.8964,38.8718 96.5,34C 95.365,33.2506 94.365,33.4173 93.5,34.5C 94.4147,35.3279 95.0814,36.3279 95.5,37.5C 94.1968,39.9705 92.3635,41.9705 90,43.5C 89.5,43.1667 89,42.8333 88.5,42.5C 89.3128,41.1861 90.3128,40.0195 91.5,39C 90.3147,37.647 88.9814,36.4803 87.5,35.5C 86.7492,36.376 86.2492,37.376 86,38.5C 85.5,36.6667 84.3333,35.5 82.5,35C 82.8333,34.6667 83.1667,34.3333 83.5,34C 82.1011,33.4054 80.7678,33.5721 79.5,34.5C 78.3044,34.1543 78.3044,33.6543 79.5,33C 74.8128,30.7652 69.8128,29.9318 64.5,30.5C 62.8333,30.5 61.1667,30.5 59.5,30.5C 56.4816,30.3354 53.4816,30.502 50.5,31C 47.5201,33.324 44.1867,34.824 40.5,35.5C 39.9279,38.5754 38.0946,40.5754 35,41.5C 33.8932,40.2881 33.3932,40.6214 33.5,42.5C 32.7839,42.7831 31.9506,43.1164 31,43.5C 30.51,42.2068 30.3433,40.8734 30.5,39.5C 31.5,39.5 32.5,39.5 33.5,39.5C 34.1667,36.8333 34.8333,34.1667 35.5,31.5C 34.5,31.5 33.5,31.5 32.5,31.5C 32.3399,35.2364 31.5066,35.2364 30,31.5C 28.1197,32.9295 26.6197,32.5962 25.5,30.5C 27.6499,28.8509 29.6499,27.0176 31.5,25C 30.2412,24.0766 28.9079,23.2432 27.5,22.5C 31.4291,19.3834 35.0958,16.0501 38.5,12.5C 39.5137,11.3263 40.847,10.6596 42.5,10.5C 54.4509,8.39161 66.4509,8.05828 78.5,9.5 Z"/></g>
<g><path style="opacity:1" fill="#444444" d="M 373.5,51.5 C 373.721,54.0972 374.221,54.0972 375,51.5C 375.689,52.3567 376.522,53.0233 377.5,53.5C 378.609,52.4104 379.609,52.4104 380.5,53.5C 377.924,54.8834 378.258,55.7167 381.5,56C 380.833,56.3333 380.167,56.6667 379.5,57C 380.313,58.3139 381.313,59.4805 382.5,60.5C 382.167,61.1667 381.833,61.8333 381.5,62.5C 383.038,64.2433 384.038,66.2433 384.5,68.5C 382.45,66.7632 380.617,64.7632 379,62.5C 377.961,63.7101 376.794,64.7101 375.5,65.5C 372.572,66.5914 370.406,68.5914 369,71.5C 368.675,75.6701 368.509,79.6701 368.5,83.5C 366.833,83.8333 365.167,84.1667 363.5,84.5C 361.359,84.3868 359.525,83.7201 358,82.5C 357.333,59.8333 357.333,37.1667 358,14.5C 361.394,13.5442 364.894,13.2108 368.5,13.5C 368.537,26.8757 368.537,40.0424 368.5,53C 370.495,53.6128 372.162,53.1128 373.5,51.5 Z"/></g>
<g><path style="opacity:1" fill="#04a814" d="M 38.5,12.5 C 35.0958,16.0501 31.4291,19.3834 27.5,22.5C 28.9079,23.2432 30.2412,24.0766 31.5,25C 29.6499,27.0176 27.6499,28.8509 25.5,30.5C 26.6197,32.5962 28.1197,32.9295 30,31.5C 31.5066,35.2364 32.3399,35.2364 32.5,31.5C 33.5,31.5 34.5,31.5 35.5,31.5C 34.8333,34.1667 34.1667,36.8333 33.5,39.5C 32.5,39.5 31.5,39.5 30.5,39.5C 30.3433,40.8734 30.51,42.2068 31,43.5C 31.9506,43.1164 32.7839,42.7831 33.5,42.5C 34.0967,42.7352 34.4301,43.2352 34.5,44C 28.8005,57.1603 29.3005,69.9937 36,82.5C 38.3078,83.9913 40.8078,84.9913 43.5,85.5C 54.6918,88.9171 57.8585,95.9171 53,106.5C 45.463,112.612 37.963,112.279 30.5,105.5C 30.631,104.761 30.4643,104.094 30,103.5C 24.256,98.9199 19.0894,93.9199 14.5,88.5C 1.15504,62.4048 5.15504,39.2381 26.5,19C 30.1554,16.1735 34.1554,14.0068 38.5,12.5 Z"/></g>
<g><path style="opacity:1" fill="#424242" d="M 271.5,29.5 C 276.167,29.5 280.833,29.5 285.5,29.5C 285.667,50.1694 285.5,70.836 285,91.5C 281.673,103.826 273.673,110.826 261,112.5C 259.674,112.245 258.674,111.578 258,110.5C 257.333,107.167 257.333,103.833 258,100.5C 260.627,98.7818 263.46,97.2818 266.5,96C 268.894,94.0478 270.394,91.5478 271,88.5C 271.5,68.8362 271.667,49.1695 271.5,29.5 Z"/></g>
<g><path style="opacity:1" fill="#424242" d="M 165.5,28.5 C 171.7,28.0157 177.7,28.8491 183.5,31C 185.97,34.4704 186.97,33.9704 186.5,29.5C 191.167,29.5 195.833,29.5 200.5,29.5C 200.667,50.1694 200.5,70.836 200,91.5C 196.113,105.365 186.947,112.365 172.5,112.5C 161.83,112.496 152.83,108.663 145.5,101C 148.667,97.8333 151.833,94.6667 155,91.5C 161.23,98.1742 168.73,100.341 177.5,98C 184.378,95.0792 187.211,89.9125 186,82.5C 167.116,91.6475 153.116,86.6475 144,67.5C 139.883,48.1491 147.05,35.1491 165.5,28.5 Z M 167.5,42.5 C 180.839,41.8418 187.005,48.1751 186,61.5C 180.985,73.2831 172.818,76.1164 161.5,70C 155.92,63.4538 155.087,56.2871 159,48.5C 161.322,45.6047 164.155,43.6047 167.5,42.5 Z"/></g>
<g><path style="opacity:1" fill="#05a714" d="M 64.5,30.5 C 69.8128,29.9318 74.8128,30.7652 79.5,33C 78.3044,33.6543 78.3044,34.1543 79.5,34.5C 80.7678,33.5721 82.1011,33.4054 83.5,34C 83.1667,34.3333 82.8333,34.6667 82.5,35C 84.3333,35.5 85.5,36.6667 86,38.5C 86.2492,37.376 86.7492,36.376 87.5,35.5C 88.9814,36.4803 90.3147,37.647 91.5,39C 90.3128,40.0195 89.3128,41.1861 88.5,42.5C 89,42.8333 89.5,43.1667 90,43.5C 92.3635,41.9705 94.1968,39.9705 95.5,37.5C 95.0814,36.3279 94.4147,35.3279 93.5,34.5C 94.365,33.4173 95.365,33.2506 96.5,34C 97.8964,38.8718 100.23,43.2051 103.5,47C 103.167,47.3333 102.833,47.6667 102.5,48C 103.793,48.49 105.127,48.6567 106.5,48.5C 105.491,45.4726 105.491,42.4726 106.5,39.5C 107.478,39.9767 108.311,40.6433 109,41.5C 110.538,49.0959 111.371,56.7626 111.5,64.5C 112.552,64.6495 113.552,64.4828 114.5,64C 113.631,58.5741 113.631,53.2408 114.5,48C 113.053,44.6124 112.053,41.1124 111.5,37.5C 122.974,64.7658 116.974,87.5992 93.5,106C 89.484,108.26 85.3173,110.093 81,111.5C 77.995,110.973 75.495,109.64 73.5,107.5C 69.0899,100.692 69.7566,94.3583 75.5,88.5C 92.7051,77.6946 96.8718,63.0279 88,44.5C 82.0331,36.6036 74.1998,31.937 64.5,30.5 Z"/></g>
<g><path style="opacity:0.668" fill="#323232" d="M 334.5,32.5 C 328.239,30.819 322.406,29.819 317,29.5C 298.644,35.2043 291.311,47.5376 295,66.5C 295.806,69.4456 297.139,72.1123 299,74.5C 301.73,76.9666 304.23,79.6333 306.5,82.5C 295.154,75.335 290.654,65.0017 293,51.5C 298.134,34.3829 309.634,26.8829 327.5,29C 330.281,29.5218 332.615,30.6885 334.5,32.5 Z"/></g>
<g><path style="opacity:1" fill="#1b9921" d="M 59.5,30.5 C 37.9242,35.3047 29.0909,48.6381 33,70.5C 35.1331,76.4649 38.6331,81.4649 43.5,85.5C 40.8078,84.9913 38.3078,83.9913 36,82.5C 29.3005,69.9937 28.8005,57.1603 34.5,44C 34.4301,43.2352 34.0967,42.7352 33.5,42.5C 33.3932,40.6214 33.8932,40.2881 35,41.5C 38.0946,40.5754 39.9279,38.5754 40.5,35.5C 44.1867,34.824 47.5201,33.324 50.5,31C 53.4816,30.502 56.4816,30.3354 59.5,30.5 Z"/></g>
<g><path style="opacity:1" fill="#27992d" d="M 66.5,42.5 C 61.2728,42.4672 56.2728,43.4672 51.5,45.5C 51.5,46.5 51.5,47.5 51.5,48.5C 50.5,48.5 49.5,48.5 48.5,48.5C 48.5,49.5 48.5,50.5 48.5,51.5C 47.5,51.5 46.5,51.5 45.5,51.5C 50.3165,43.2553 57.3165,40.2553 66.5,42.5 Z"/></g>
<g><path style="opacity:1" fill="#424242" d="M 334.5,32.5 C 341.909,36.2616 346.742,42.2616 349,50.5C 349.499,54.4862 349.666,58.4862 349.5,62.5C 335.151,62.1674 320.818,62.5007 306.5,63.5C 311.08,72.3046 318.08,75.138 327.5,72C 330.295,70.2068 332.795,68.0402 335,65.5C 338.857,67.6621 342.357,70.1621 345.5,73C 336.617,86.1834 324.617,90.1834 309.5,85C 308.058,84.6232 307.058,83.7899 306.5,82.5C 304.23,79.6333 301.73,76.9666 299,74.5C 297.139,72.1123 295.806,69.4456 295,66.5C 291.311,47.5376 298.644,35.2043 317,29.5C 322.406,29.819 328.239,30.819 334.5,32.5 Z M 316.5,42.5 C 324.452,41.1382 330.452,43.8049 334.5,50.5C 325.5,51.8333 316.5,51.8333 307.5,50.5C 309.548,46.6608 312.548,43.9941 316.5,42.5 Z"/></g>
<g><path style="opacity:1" fill="#03a814" d="M 66.5,42.5 C 80.0039,46.8407 84.5039,55.8407 80,69.5C 78.3343,72.3312 76.1676,74.6645 73.5,76.5C 71.0799,76.7076 68.7466,76.3742 66.5,75.5C 65.4937,75.9377 65.4937,76.6043 66.5,77.5C 63.5541,78.6548 60.5541,78.8214 57.5,78C 59.4054,77.1739 59.7388,76.0072 58.5,74.5C 55.7751,77.0676 53.4418,76.901 51.5,74C 52.3279,73.0853 53.3279,72.4186 54.5,72C 54.1667,71.6667 53.8333,71.3333 53.5,71C 52.1265,71.8787 50.1265,72.2121 47.5,72C 46.5399,70.5806 45.7065,69.0806 45,67.5C 44.3914,62.1387 44.5581,56.8054 45.5,51.5C 46.5,51.5 47.5,51.5 48.5,51.5C 48.5,50.5 48.5,49.5 48.5,48.5C 49.5,48.5 50.5,48.5 51.5,48.5C 51.5,47.5 51.5,46.5 51.5,45.5C 56.2728,43.4672 61.2728,42.4672 66.5,42.5 Z"/></g>
<g><path style="opacity:1" fill="#424242" d="M 394.5,29.5 C 400.176,29.3339 405.843,29.5006 411.5,30C 403.789,37.3756 396.456,45.0423 389.5,53C 396.958,63.9615 404.624,74.7948 412.5,85.5C 407.198,86.6628 401.864,86.8295 396.5,86C 391.863,80.5427 387.863,74.7093 384.5,68.5C 384.038,66.2433 383.038,64.2433 381.5,62.5C 381.833,61.8333 382.167,61.1667 382.5,60.5C 381.313,59.4805 380.313,58.3139 379.5,57C 380.167,56.6667 380.833,56.3333 381.5,56C 378.258,55.7167 377.924,54.8834 380.5,53.5C 379.609,52.4104 378.609,52.4104 377.5,53.5C 376.522,53.0233 375.689,52.3567 375,51.5C 374.221,54.0972 373.721,54.0972 373.5,51.5C 380.5,44.1667 387.5,36.8333 394.5,29.5 Z"/></g>
<g><path style="opacity:0.59" fill="#353535" d="M 394.5,29.5 C 387.5,36.8333 380.5,44.1667 373.5,51.5C 372.162,53.1128 370.495,53.6128 368.5,53C 368.537,40.0424 368.537,26.8757 368.5,13.5C 364.894,13.2108 361.394,13.5442 358,14.5C 357.333,37.1667 357.333,59.8333 358,82.5C 359.525,83.7201 361.359,84.3868 363.5,84.5C 365.167,84.1667 366.833,83.8333 368.5,83.5C 368.509,79.6701 368.675,75.6701 369,71.5C 370.406,68.5914 372.572,66.5914 375.5,65.5C 374.207,67.2959 372.707,68.9625 371,70.5C 370.501,75.8229 370.334,81.1563 370.5,86.5C 365.833,86.5 361.167,86.5 356.5,86.5C 356.5,61.8333 356.5,37.1667 356.5,12.5C 361.167,12.5 365.833,12.5 370.5,12.5C 370.333,25.5043 370.5,38.5043 371,51.5C 378.422,43.5732 386.255,36.2399 394.5,29.5 Z"/></g>
<g><path style="opacity:1" fill="#189c20" d="M 45.5,51.5 C 44.5581,56.8054 44.3914,62.1387 45,67.5C 45.7065,69.0806 46.5399,70.5806 47.5,72C 50.1265,72.2121 52.1265,71.8787 53.5,71C 53.8333,71.3333 54.1667,71.6667 54.5,72C 53.3279,72.4186 52.3279,73.0853 51.5,74C 53.4418,76.901 55.7751,77.0676 58.5,74.5C 59.7388,76.0072 59.4054,77.1739 57.5,78C 60.5541,78.8214 63.5541,78.6548 66.5,77.5C 65.4937,76.6043 65.4937,75.9377 66.5,75.5C 68.7466,76.3742 71.0799,76.7076 73.5,76.5C 63.3866,82.6028 54.2199,81.2695 46,72.5C 41.6305,65.4468 41.4639,58.4468 45.5,51.5 Z"/></g>
<g><path style="opacity:1" fill="#414141" d="M 230.5,28.5 C 255.116,28.6176 266.283,40.9509 264,65.5C 258.762,81.0642 247.929,88.2309 231.5,87C 213.79,81.7542 205.956,69.9209 208,51.5C 211.049,39.3474 218.549,31.6807 230.5,28.5 Z M 231.5,42.5 C 244.807,41.9746 251.307,48.3079 251,61.5C 246.482,72.8419 238.648,76.0086 227.5,71C 217.795,59.9794 219.128,50.4794 231.5,42.5 Z"/></g>
<g><path style="opacity:1" fill="#1a9323" d="M 75.5,88.5 C 69.7566,94.3583 69.0899,100.692 73.5,107.5C 67.9958,103.117 67.1625,97.7837 71,91.5C 72.129,89.8588 73.629,88.8588 75.5,88.5 Z"/></g>
<g><path style="opacity:0.855" fill="#188c23" d="M 14.5,88.5 C 19.0894,93.9199 24.256,98.9199 30,103.5C 30.4643,104.094 30.631,104.761 30.5,105.5C 23.7858,101.12 18.4524,95.4529 14.5,88.5 Z"/></g>
</svg>
