<?xml version="1.0" encoding="UTF-8"?>
<!DOCTYPE svg PUBLIC "-//W3C//DTD SVG 1.1//EN" "http://www.w3.org/Graphics/SVG/1.1/DTD/svg11.dtd">
<svg xmlns="http://www.w3.org/2000/svg" version="1.1" width="397px" height="127px" style="shape-rendering:geometricPrecision; text-rendering:geometricPrecision; image-rendering:optimizeQuality; fill-rule:evenodd; clip-rule:evenodd" xmlns:xlink="http://www.w3.org/1999/xlink">
<g><path style="opacity:1" fill="#e04b2c" d="M 45.5,-0.5 C 46.1667,-0.5 46.8333,-0.5 47.5,-0.5C 47.7214,0.734849 48.3881,1.73485 49.5,2.5C 48.3112,3.42869 46.9778,3.76202 45.5,3.5C 45.5,4.5 45.5,5.5 45.5,6.5C 50.1785,6.33418 54.8452,6.50085 59.5,7C 60.056,7.38258 60.3893,7.88258 60.5,8.5C 47.7776,4.91637 39.1109,9.2497 34.5,21.5C 33.5386,23.2646 33.2053,25.2646 33.5,27.5C 32.71,26.3915 32.21,25.0581 32,23.5C 30.2835,24.5523 29.2835,23.8856 29,21.5C 28.0819,24.0631 28.5819,26.2298 30.5,28C 29.5838,28.3742 28.7504,28.8742 28,29.5C 19.2547,28.9708 10.4213,28.3041 1.5,27.5C 9.83333,27.5 18.1667,27.5 26.5,27.5C 27.3352,14.3479 33.6685,5.01455 45.5,-0.5 Z"/></g>
<g><path style="opacity:0.075" fill="#c94d30" d="M 34.5,21.5 C 34.5,23.5 34.5,25.5 34.5,27.5C 46.8333,27.5 59.1667,27.5 71.5,27.5C 71.5,28.1667 71.1667,28.5 70.5,28.5C 57.9887,28.8286 45.6554,28.4952 33.5,27.5C 33.2053,25.2646 33.5386,23.2646 34.5,21.5 Z"/></g>
<g><path style="opacity:1" fill="#eb4c2c" d="M 33.5,27.5 C 45.6554,28.4952 57.9887,28.8286 70.5,28.5C 68.6174,30.3976 66.6174,32.2309 64.5,34C 60.8125,34.4501 57.1458,34.2834 53.5,33.5C 53.3505,34.552 53.5172,35.552 54,36.5C 58.0836,37.9253 61.2503,40.4253 63.5,44C 62.552,44.4828 61.552,44.6495 60.5,44.5C 57.3048,42.9704 53.8048,42.3037 50,42.5C 46.8458,42.6506 43.8458,43.3172 41,44.5C 38.8014,43.3546 36.6348,43.3546 34.5,44.5C 35.325,45.3857 36.325,45.719 37.5,45.5C 37.5,46.5 37.5,47.5 37.5,48.5C 36.1266,48.3433 34.7932,48.51 33.5,49C 34.4231,51.0408 34.7564,53.2075 34.5,55.5C 34.2717,61.5441 36.6051,66.3774 41.5,70C 49.0361,72.9535 56.3695,76.2868 63.5,80C 69.1934,89.0727 66.86,95.0727 56.5,98C 48.3825,99.0118 41.2158,96.8452 35,91.5C 34.5348,92.9308 33.7014,94.0975 32.5,95C 34.9025,96.853 37.2359,98.6863 39.5,100.5C 40.5893,102.117 42.256,102.95 44.5,103C 41.8901,105.579 40.5568,108.746 40.5,112.5C 38.4727,112.662 36.4727,112.495 34.5,112C 35.7414,110.513 35.2414,109.68 33,109.5C 27.0552,111.652 21.0552,111.985 15,110.5C 14.3076,111.025 13.8076,111.692 13.5,112.5C 15.0396,113.532 15.5396,114.865 15,116.5C 13.3775,117.099 11.8775,117.766 10.5,118.5C 10.1667,118.5 9.83333,118.5 9.5,118.5C 8.54227,117.038 7.37561,115.705 6,114.5C 5.33838,109.132 4.17171,104.132 2.5,99.5C 1.49735,83.3733 0.497353,67.3733 -0.5,51.5C -0.5,43.8333 -0.5,36.1667 -0.5,28.5C 0.166667,28.1667 0.833333,27.8333 1.5,27.5C 10.4213,28.3041 19.2547,28.9708 28,29.5C 28.7504,28.8742 29.5838,28.3742 30.5,28C 28.5819,26.2298 28.0819,24.0631 29,21.5C 29.2835,23.8856 30.2835,24.5523 32,23.5C 32.21,25.0581 32.71,26.3915 33.5,27.5 Z"/></g>
<g><path style="opacity:1" fill="#ea4c2c" d="M 47.5,-0.5 C 51.5,-0.5 55.5,-0.5 59.5,-0.5C 71.1359,5.15676 77.8026,14.4901 79.5,27.5C 87.3228,28.3292 95.3228,28.8292 103.5,29C 104.151,36.2655 104.818,43.4322 105.5,50.5C 105.5,50.8333 105.5,51.1667 105.5,51.5C 103.955,52.2297 103.122,53.563 103,55.5C 102.174,67.3407 102.341,79.0073 103.5,90.5C 102.888,98.1489 102.054,105.816 101,113.5C 99.3374,115.917 97.1707,117.75 94.5,119C 66.3303,119.83 38.3303,119.664 10.5,118.5C 11.8775,117.766 13.3775,117.099 15,116.5C 15.5396,114.865 15.0396,113.532 13.5,112.5C 13.8076,111.692 14.3076,111.025 15,110.5C 21.0552,111.985 27.0552,111.652 33,109.5C 35.2414,109.68 35.7414,110.513 34.5,112C 36.4727,112.495 38.4727,112.662 40.5,112.5C 40.5568,108.746 41.8901,105.579 44.5,103C 42.256,102.95 40.5893,102.117 39.5,100.5C 46.039,102.372 52.7057,102.872 59.5,102C 71.5762,97.0179 74.4095,88.8513 68,77.5C 60.6739,72.7541 52.8406,68.9208 44.5,66C 37.4634,59.5005 38.13,53.8339 46.5,49C 53.6288,47.6478 60.2955,48.8145 66.5,52.5C 67.8876,51.4091 68.3876,50.0758 68,48.5C 65.4862,46.9958 62.9862,45.6624 60.5,44.5C 61.552,44.6495 62.552,44.4828 63.5,44C 61.2503,40.4253 58.0836,37.9253 54,36.5C 53.5172,35.552 53.3505,34.552 53.5,33.5C 57.1458,34.2834 60.8125,34.4501 64.5,34C 66.6174,32.2309 68.6174,30.3976 70.5,28.5C 71.1667,28.5 71.5,28.1667 71.5,27.5C 70.1272,19.7438 66.4606,13.4105 60.5,8.5C 60.3893,7.88258 60.056,7.38258 59.5,7C 54.8452,6.50085 50.1785,6.33418 45.5,6.5C 45.5,5.5 45.5,4.5 45.5,3.5C 46.9778,3.76202 48.3112,3.42869 49.5,2.5C 48.3881,1.73485 47.7214,0.734849 47.5,-0.5 Z"/></g>
<g><path style="opacity:0.498" fill="#c8482f" d="M 79.5,27.5 C 87.84,27.3336 96.1733,27.5003 104.5,28C 105.481,35.4129 105.814,42.9129 105.5,50.5C 104.818,43.4322 104.151,36.2655 103.5,29C 95.3228,28.8292 87.3228,28.3292 79.5,27.5 Z"/></g>
<g><path style="opacity:1" fill="#d54d2f" d="M 60.5,44.5 C 48.6169,41.222 39.9503,44.8887 34.5,55.5C 34.7564,53.2075 34.4231,51.0408 33.5,49C 34.7932,48.51 36.1266,48.3433 37.5,48.5C 37.5,47.5 37.5,46.5 37.5,45.5C 36.325,45.719 35.325,45.3857 34.5,44.5C 36.6348,43.3546 38.8014,43.3546 41,44.5C 43.8458,43.3172 46.8458,42.6506 50,42.5C 53.8048,42.3037 57.3048,42.9704 60.5,44.5 Z"/></g>
<g><path style="opacity:1" fill="#e54b2c" d="M 132.5,101.5 C 131.972,100.279 131.305,99.1127 130.5,98C 131.071,96.7949 131.738,95.6283 132.5,94.5C 134.075,95.4565 135.742,96.1231 137.5,96.5C 142.704,98.2536 148.037,98.7536 153.5,98C 158.74,96.9274 161.74,93.7607 162.5,88.5C 161.85,85.3449 160.183,82.8449 157.5,81C 150.845,78.3347 144.178,75.668 137.5,73C 135.004,71.669 133.004,69.8356 131.5,67.5C 129.058,59.5961 130.392,52.5961 135.5,46.5C 139.091,43.1942 143.425,41.8609 148.5,42.5C 154.907,42.2261 160.74,43.8928 166,47.5C 166.458,50.5851 165.291,52.9184 162.5,54.5C 154.564,48.6381 146.564,48.3047 138.5,53.5C 135.274,58.6282 136.274,62.7949 141.5,66C 149.547,68.5253 157.214,71.8586 164.5,76C 173.264,86.749 171.931,96.0823 160.5,104C 150.65,107.817 141.317,106.983 132.5,101.5 Z"/></g>
<g><path style="opacity:0.075" fill="#c7452c" d="M 175.5,43.5 C 176.497,63.6598 176.83,83.9931 176.5,104.5C 178.5,104.5 180.5,104.5 182.5,104.5C 182.183,100.298 182.517,96.2984 183.5,92.5C 183.5,96.5 183.5,100.5 183.5,104.5C 182.848,105.725 181.681,106.392 180,106.5C 178.564,106.441 177.231,106.108 176,105.5C 175.5,84.836 175.333,64.1694 175.5,43.5 Z"/></g>
<g><path style="opacity:1" fill="#ce4e31" d="M 105.5,51.5 C 104.271,64.4141 103.604,77.4141 103.5,90.5C 102.341,79.0073 102.174,67.3407 103,55.5C 103.122,53.563 103.955,52.2297 105.5,51.5 Z"/></g>
<g><path style="opacity:1" fill="#ca4d32" d="M 135.5,46.5 C 130.392,52.5961 129.058,59.5961 131.5,67.5C 127.471,61.1795 127.638,54.8462 132,48.5C 132.816,47.1772 133.983,46.5106 135.5,46.5 Z"/></g>
<g><path style="opacity:1" fill="#e74b2c" d="M 273.5,126.5 C 271.167,126.5 268.833,126.5 266.5,126.5C 266.5,106.167 266.5,85.8333 266.5,65.5C 268.833,65.5 271.167,65.5 273.5,65.5C 273.238,66.9778 273.571,68.3112 274.5,69.5C 286.071,63.1858 295.904,65.1858 304,75.5C 310.109,92.9544 304.109,103.288 286,106.5C 281.861,106.065 278.028,104.731 274.5,102.5C 273.502,110.472 273.169,118.472 273.5,126.5 Z M 282.5,73.5 C 295.027,72.8479 300.193,78.5145 298,90.5C 293.402,98.584 286.902,100.417 278.5,96C 271.458,87.0017 272.792,79.5017 282.5,73.5 Z"/></g>
<g><path style="opacity:1" fill="#e04b2c" d="M 389.5,70.5 C 387.334,70.4211 385.334,69.7545 383.5,68.5C 381.553,69.277 379.72,70.277 378,71.5C 376.079,69.9972 373.912,69.3305 371.5,69.5C 371.5,70.5 371.5,71.5 371.5,72.5C 375.902,72.7719 380.235,72.4386 384.5,71.5C 387.139,73.4112 388.472,76.0778 388.5,79.5C 380.963,71.3597 373.63,71.5264 366.5,80C 373.492,80.4996 380.492,80.6663 387.5,80.5C 379.133,82.0455 370.466,83.3788 361.5,84.5C 360.833,85.1667 360.167,85.8333 359.5,86.5C 360.126,90.5495 361.626,94.2162 364,97.5C 366.039,96.0217 366.872,94.0217 366.5,91.5C 374.364,99.9211 382.864,100.588 392,93.5C 395.799,95.8463 396.299,98.6796 393.5,102C 381.216,108.136 370.382,106.303 361,96.5C 355.148,83.7575 358.315,73.9241 370.5,67C 377.64,64.3457 383.974,65.5124 389.5,70.5 Z"/></g>
<g><path style="opacity:1" fill="#e54a2c" d="M 235.5,65.5 C 249.763,64.7942 258.097,71.4608 260.5,85.5C 257.948,100.224 249.282,106.724 234.5,105C 220.224,99.5152 216.057,89.6819 222,75.5C 225.404,70.5615 229.904,67.2281 235.5,65.5 Z M 235.5,73.5 C 247.994,72.8173 253.161,78.484 251,90.5C 247.345,97.0702 241.845,99.2368 234.5,97C 227.838,93.136 225.671,87.636 228,80.5C 229.742,77.2543 232.242,74.921 235.5,73.5 Z"/></g>
<g><path style="opacity:1" fill="#e64a2a" d="M 350.5,80.5 C 350.5,82.5 350.5,84.5 350.5,86.5C 340.833,86.5 331.167,86.5 321.5,86.5C 321.833,83.5 320.5,82.1667 317.5,82.5C 317.357,85.0974 316.523,87.4308 315,89.5C 314.833,87.8333 314.667,86.1667 314.5,84.5C 314.613,82.3587 315.28,80.5253 316.5,79C 315.748,78.3292 315.414,77.4959 315.5,76.5C 322.412,65.3674 331.745,62.8674 343.5,69C 347.506,71.8515 349.84,75.6848 350.5,80.5 Z M 328.5,73.5 C 334.926,72.3799 339.926,74.5465 343.5,80C 336.167,80.6667 328.833,80.6667 321.5,80C 323.077,76.9197 325.41,74.753 328.5,73.5 Z"/></g>
<g><path style="opacity:1" fill="#e64c2c" d="M 175.5,43.5 C 178.23,42.1834 181.063,42.1834 184,43.5C 184.168,51.8532 184.668,60.1866 185.5,68.5C 197.636,63.1826 206.803,66.5159 213,78.5C 214.548,87.4377 214.881,96.4377 214,105.5C 211.619,106.435 209.119,106.768 206.5,106.5C 206.666,98.8261 206.5,91.1594 206,83.5C 202.854,74.5659 197.021,72.0659 188.5,76C 187.29,77.0391 186.29,78.2058 185.5,79.5C 183.57,83.3727 182.903,87.706 183.5,92.5C 182.517,96.2984 182.183,100.298 182.5,104.5C 180.5,104.5 178.5,104.5 176.5,104.5C 176.83,83.9931 176.497,63.6598 175.5,43.5 Z"/></g>
<g><path style="opacity:0.012" fill="#ad534f" d="M 185.5,79.5 C 184.861,87.9326 184.194,96.2659 183.5,104.5C 183.5,100.5 183.5,96.5 183.5,92.5C 182.903,87.706 183.57,83.3727 185.5,79.5 Z"/></g>
<g><path style="opacity:1" fill="#da4d32" d="M 315.5,76.5 C 315.414,77.4959 315.748,78.3292 316.5,79C 315.28,80.5253 314.613,82.3587 314.5,84.5C 314.667,86.1667 314.833,87.8333 315,89.5C 316.523,87.4308 317.357,85.0974 317.5,82.5C 320.5,82.1667 321.833,83.5 321.5,86.5C 331.167,86.5 340.833,86.5 350.5,86.5C 350.5,84.5 350.5,82.5 350.5,80.5C 351.814,82.8953 351.814,85.3953 350.5,88C 340.839,88.4998 331.172,88.6665 321.5,88.5C 321.781,90.9628 322.781,93.1295 324.5,95C 327.158,96.478 329.825,97.6446 332.5,98.5C 328.921,98.6837 325.587,98.017 322.5,96.5C 321.507,93.9267 320.674,91.26 320,88.5C 319.73,91.2241 319.23,93.8908 318.5,96.5C 319.376,97.2508 320.376,97.7508 321.5,98C 320.748,98.6708 320.414,99.5041 320.5,100.5C 314.499,96.1427 311.999,90.1427 313,82.5C 313.24,80.1484 314.073,78.1484 315.5,76.5 Z"/></g>
<g><path style="opacity:1" fill="#e94c2c" d="M 389.5,70.5 C 392.569,72.9929 394.902,75.9929 396.5,79.5C 396.5,82.5 396.5,85.5 396.5,88.5C 386.5,88.5 376.5,88.5 366.5,88.5C 366.5,89.5 366.5,90.5 366.5,91.5C 366.872,94.0217 366.039,96.0217 364,97.5C 361.626,94.2162 360.126,90.5495 359.5,86.5C 360.167,85.8333 360.833,85.1667 361.5,84.5C 370.466,83.3788 379.133,82.0455 387.5,80.5C 388.167,80.5 388.5,80.1667 388.5,79.5C 388.472,76.0778 387.139,73.4112 384.5,71.5C 380.235,72.4386 375.902,72.7719 371.5,72.5C 371.5,71.5 371.5,70.5 371.5,69.5C 373.912,69.3305 376.079,69.9972 378,71.5C 379.72,70.277 381.553,69.277 383.5,68.5C 385.334,69.7545 387.334,70.4211 389.5,70.5 Z"/></g>
<g><path style="opacity:1" fill="#d24b32" d="M 137.5,96.5 C 135.742,96.1231 134.075,95.4565 132.5,94.5C 131.738,95.6283 131.071,96.7949 130.5,98C 131.305,99.1127 131.972,100.279 132.5,101.5C 126.657,100.555 125.491,97.8887 129,93.5C 129.667,92.8333 130.333,92.1667 131,91.5C 133.352,93.0303 135.519,94.6969 137.5,96.5 Z"/></g>
<g><path style="opacity:0.992" fill="#eb492a" d="M 332.5,98.5 C 335.903,98.1489 339.237,97.4822 342.5,96.5C 346.838,94.3354 348.838,95.6687 348.5,100.5C 346.801,100.34 345.134,100.506 343.5,101C 343.833,101.333 344.167,101.667 344.5,102C 342.881,102.236 341.881,103.069 341.5,104.5C 335.024,106.117 328.691,105.617 322.5,103C 321.619,102.292 320.953,101.458 320.5,100.5C 320.414,99.5041 320.748,98.6708 321.5,98C 320.376,97.7508 319.376,97.2508 318.5,96.5C 319.23,93.8908 319.73,91.2241 320,88.5C 320.674,91.26 321.507,93.9267 322.5,96.5C 325.587,98.017 328.921,98.6837 332.5,98.5 Z"/></g>
<g><path style="opacity:1" fill="#d04b2f" d="M 341.5,104.5 C 341.881,103.069 342.881,102.236 344.5,102C 344.167,101.667 343.833,101.333 343.5,101C 345.134,100.506 346.801,100.34 348.5,100.5C 348.838,95.6687 346.838,94.3354 342.5,96.5C 346.364,92.2376 349.031,93.0709 350.5,99C 348.418,102.232 345.418,104.066 341.5,104.5 Z"/></g>
<g><path style="opacity:1" fill="#ce4d33" d="M 2.5,99.5 C 4.17171,104.132 5.33838,109.132 6,114.5C 7.37561,115.705 8.54227,117.038 9.5,118.5C 6.17833,117.342 4.01167,115.008 3,111.5C 2.50115,107.514 2.33449,103.514 2.5,99.5 Z"/></g>
</svg>
